<?xml version="1.0" standalone="no"?><svg xmlns="http://www.w3.org/2000/svg" viewBox="0 0 1440 320"><path fill="#fff" fill-opacity="1" d="M0,288L21.8,288C43.6,288,87,288,131,277.3C174.5,267,218,245,262,224C305.5,203,349,181,393,192C436.4,203,480,245,524,261.3C567.3,277,611,267,655,256C698.2,245,742,235,785,213.3C829.1,192,873,160,916,138.7C960,117,1004,107,1047,106.7C1090.9,107,1135,117,1178,144C1221.8,171,1265,213,1309,229.3C1352.7,245,1396,235,1418,229.3L1440,224L1440,0L1418.2,0C1396.4,0,1353,0,1309,0C1265.5,0,1222,0,1178,0C1134.5,0,1091,0,1047,0C1003.6,0,960,0,916,0C872.7,0,829,0,785,0C741.8,0,698,0,655,0C610.9,0,567,0,524,0C480,0,436,0,393,0C349.1,0,305,0,262,0C218.2,0,175,0,131,0C87.3,0,44,0,22,0L0,0Z"></path></svg>